<svg xmlns:xlink="http://www.w3.org/1999/xlink" xmlns="http://www.w3.org/2000/svg" width="225" height="38" viewBox="0 0 225 38" fill="none">
<path d="M146.133 0.170044C135.933 0.170044 127.662 8.47566 127.662 18.7191C127.662 28.9625 135.933 37.2681 146.133 37.2681C156.333 37.2681 164.603 28.9625 164.603 18.7191C164.603 8.47566 156.333 0.170044 146.133 0.170044ZM149.713 28.8991L146.133 19.2841L142.552 28.8991H133.998L141.821 7.71533L146.133 19.2841L150.444 7.71533L158.267 28.8991H149.713Z" fill="#231F20"/>
<path d="M2.69195 16.3957V20.8257H9.69521V23.112H2.69195V28.6878H0V14.1306H10.5838V16.3957H2.69195Z" fill="black"/>
<path d="M13.2761 22.3464V14.1306H15.9681V22.2461C15.9681 25.2399 17.3141 26.5335 19.6537 26.5335C21.9934 26.5335 23.3184 25.2452 23.3184 22.2461V14.1306H25.9682V22.3464C25.9682 26.5916 23.5865 28.899 19.6274 28.899C15.6684 28.899 13.2656 26.5916 13.2656 22.3464H13.2761Z" fill="black"/>
<path d="M39.4328 28.6931L36.4727 24.4268C36.2887 24.4479 36.0994 24.4479 35.9154 24.4479H32.6451V28.6931H29.9532V14.1305H35.9207C39.7325 14.1305 42.0932 16.0842 42.0932 19.3103C42.0932 21.5174 40.9733 23.1384 39.0069 23.9093L42.3403 28.6931H39.4328ZM35.7892 16.4168H32.6399V22.2197H35.7892C38.1499 22.2197 39.375 21.1373 39.375 19.3051C39.375 17.4729 38.1499 16.4116 35.7892 16.4116V16.4168Z" fill="black"/>
<path d="M58.1817 14.1305V28.6931H55.9629L47.966 18.8351V28.6931H45.2951V14.1305H47.5138L55.5108 23.9885V14.1305H58.1817Z" fill="black"/>
<path d="M62.2775 14.1305H64.9695V28.6931H62.2775V14.1305Z" fill="black"/>
<path d="M72.0302 16.4168H67.2246V14.1306H79.5276V16.4168H74.7221V28.6931H72.0302V16.4168Z" fill="black"/>
<path d="M81.3738 22.3464V14.1306H84.0657V22.2461C84.0657 25.2399 85.4117 26.5335 87.7514 26.5335C90.0911 26.5335 91.416 25.2452 91.416 22.2461V14.1306H94.0659V22.3464C94.0659 26.5916 91.6842 28.899 87.7251 28.899C83.7661 28.899 81.3633 26.5916 81.3633 22.3464H81.3738Z" fill="black"/>
<path d="M107.531 28.6931L104.57 24.4268C104.386 24.4479 104.197 24.4479 104.013 24.4479H100.743V28.6931H98.0509V14.1305H104.018C107.83 14.1305 110.191 16.0842 110.191 19.3103C110.191 21.5174 109.071 23.1384 107.105 23.9093L110.438 28.6931H107.531ZM103.887 16.4168H100.738V22.2197H103.887C106.248 22.2197 107.473 21.1373 107.473 19.3051C107.473 17.4729 106.248 16.4116 103.887 16.4116V16.4168Z" fill="black"/>
<path d="M124.266 26.4227V28.6878H113.393V14.1306H123.976V16.3957H116.085V20.1816H123.088V22.4098H116.085V26.4227H124.266Z" fill="black"/>
<path d="M176.054 25.3193H168.804L167.374 28.688H164.598L171.122 14.1255H173.772L180.318 28.688H177.5L176.049 25.3193H176.054ZM175.166 23.1967L172.432 16.8289L169.719 23.1967H175.166Z" fill="black"/>
<path d="M187.364 22.5944L185.066 24.9652V28.6876H182.374V14.1304H185.066V21.5964L192.232 14.1304H195.255L189.167 20.6407L195.629 28.6929H192.479L187.364 22.5997V22.5944Z" fill="black"/>
<path d="M208.552 26.4225V28.6876H197.679V14.1304H208.262V16.3955H200.371V20.1814H207.374V22.4096H200.371V26.4225H208.552Z" fill="black"/>
<path d="M221.249 28.6929L218.289 24.4266C218.1 24.4477 217.916 24.4477 217.732 24.4477H214.461V28.6929H211.77V14.1304H217.737C221.549 14.1304 223.91 16.084 223.91 19.3102C223.91 21.5172 222.79 23.1382 220.823 23.9091L224.157 28.6929H221.249ZM217.606 16.4167H214.456V22.2195H217.606C219.966 22.2195 221.191 21.1371 221.191 19.3049C221.191 17.4727 219.966 16.4114 217.606 16.4114V16.4167Z" fill="black"/>
</svg>